<svg xmlns="http://www.w3.org/2000/svg" height="40px" viewBox="0 -960 960 960" width="40px" fill="currentColor"><path d="M331.33-189.67q-13.66-9.66-19.33-24.66l-95.33-232.34h-138q-14.34 0-23.84-9.5T45.33-480q0-14.33 9.5-23.83 9.5-9.5 23.84-9.5h162q10.33 0 18.16 5.66 7.84 5.67 12.17 15l91 221.34 186-473q5.67-15 19.33-24.67 13.67-9.67 30.67-9.67t30.67 9.67q13.66 9.67 19.33 24.67l95.33 231h138q14.34 0 23.84 9.5t9.5 23.83q0 14.33-9.5 23.83-9.5 9.5-23.84 9.5h-162q-10.33 0-18.16-5.66-7.84-5.67-12.17-15l-91-220-186 473q-5.67 15-19.33 24.66Q379-180 362-180t-30.67-9.67Z"/></svg>