<svg version="1.0" xmlns="http://www.w3.org/2000/svg"
 width="1629.623762pt" height="1583.007258pt" viewBox="0 0 1629.623762 1583.007258"
 preserveAspectRatio="xMidYMid meet">

<g transform="translate(-185.091112,1793.799386) scale(0.100000,-0.100000)"
fill="#e8eaed">
<path d="M11132 17924 c-70 -18 -97 -33 -227 -122 -240 -164 -545 -422 -785
-662 -473 -472 -776 -987 -916 -1555 -32 -133 -64 -342 -64 -424 0 -97 -20
-243 -36 -268 -19 -30 -57 -29 -97 1 -38 28 -198 89 -293 111 -139 32 -329 47
-459 35 -337 -31 -629 -121 -905 -278 -128 -74 -332 -208 -402 -265 l-57 -47
-148 10 c-329 22 -452 23 -613 6 -159 -18 -271 -35 -395 -61 -383 -80 -925
-317 -1320 -578 -107 -71 -361 -256 -397 -289 -7 -7 -38 -33 -68 -58 -276
-224 -591 -550 -795 -821 -242 -321 -307 -416 -450 -664 -67 -115 -240 -453
-275 -535 -12 -30 -33 -77 -45 -105 -99 -216 -268 -725 -339 -1020 -9 -38 -21
-86 -26 -105 -9 -32 -57 -277 -80 -410 -76 -434 -110 -1118 -76 -1561 9 -118
21 -254 27 -304 16 -140 39 -305 49 -360 6 -27 23 -122 40 -210 17 -88 35
-178 40 -200 65 -276 73 -305 142 -530 73 -239 136 -411 222 -610 7 -16 24
-55 37 -85 42 -97 187 -387 250 -503 169 -306 407 -658 586 -867 11 -14 67
-79 123 -145 119 -140 424 -451 524 -533 38 -31 96 -80 130 -108 254 -211 561
-408 871 -560 94 -45 202 -95 240 -109 373 -142 529 -179 810 -191 118 -6 162
-3 277 15 157 26 117 37 348 -94 326 -184 653 -320 976 -405 257 -67 420 -90
655 -90 170 0 286 13 379 42 58 18 177 78 195 98 27 30 60 24 123 -19 301
-203 553 -307 897 -367 126 -22 412 -21 525 1 181 36 273 65 460 142 137 57
258 118 385 192 64 37 125 53 125 33 0 -11 100 -60 159 -77 195 -58 569 -60
841 -4 74 15 287 67 325 79 166 53 304 103 415 152 315 140 422 193 551 273
57 36 115 65 129 65 14 0 70 -7 124 -15 125 -19 315 -19 426 0 333 55 771 236
1170 482 230 142 525 358 684 502 183 165 164 146 360 351 291 304 534 632
799 1080 92 156 297 559 297 585 0 2 15 36 34 77 119 258 248 639 326 963 54
225 59 247 94 435 151 793 151 1726 0 2505 -50 255 -109 514 -133 585 -5 14
-19 59 -31 100 -114 381 -252 731 -417 1060 -108 216 -126 249 -241 435 -487
795 -1069 1382 -1812 1829 -102 62 -355 191 -454 232 -69 29 -141 61 -171 74
-11 5 -81 30 -155 54 -359 119 -659 166 -1055 165 -126 0 -252 -4 -280 -9
-141 -26 -121 -30 -231 52 -324 241 -716 422 -1054 487 -351 67 -622 53 -860
-46 -52 -21 -133 -64 -151 -79 -8 -8 -29 -16 -46 -20 -65 -13 -81 48 -64 248
20 236 73 450 158 638 13 30 39 87 56 125 135 300 381 622 773 1011 184 183
214 216 224 255 16 59 6 134 -24 179 -31 47 -127 131 -236 205 -103 70 -121
86 -279 234 -68 64 -138 125 -155 135 -17 11 -67 25 -111 32 -95 16 -87 16
-153 -2z m598 -3339 c134 -16 214 -33 324 -70 155 -51 346 -137 346 -155 0 -6
-42 -10 -102 -10 -220 0 -435 -58 -645 -172 -69 -37 -157 -91 -194 -118 -38
-28 -73 -50 -79 -50 -29 0 -215 145 -321 250 -99 98 -151 173 -147 210 3 26 5
26 69 13 15 -3 69 10 132 31 251 83 389 99 617 71z m-3062 -20 c40 -9 101 -23
135 -31 34 -9 109 -26 167 -39 70 -15 106 -27 108 -37 1 -8 -8 -30 -21 -49
-27 -41 -382 -366 -409 -375 -12 -4 -30 5 -53 25 -86 75 -252 164 -411 220
-140 50 -256 72 -376 73 -49 1 -88 5 -88 9 0 16 69 59 136 85 134 51 305 104
371 114 37 6 69 13 72 16 12 11 302 3 369 -11z m5307 -600 c156 -21 244 -39
405 -83 268 -74 527 -191 832 -375 660 -399 1188 -939 1615 -1652 135 -225
255 -454 318 -605 15 -36 35 -83 45 -105 61 -134 162 -417 215 -600 9 -33 23
-80 30 -105 7 -25 25 -90 39 -145 22 -89 33 -135 65 -280 9 -39 33 -160 52
-260 8 -47 26 -172 48 -350 66 -512 44 -1317 -49 -1790 -135 -692 -264 -1097
-505 -1590 -168 -344 -302 -561 -564 -914 -282 -380 -601 -711 -926 -964 -134
-103 -362 -253 -530 -347 -149 -84 -444 -220 -525 -243 -106 -30 -134 -36
-138 -32 -3 3 42 53 99 112 472 490 919 1177 1185 1825 25 62 52 127 59 143
43 98 132 359 200 585 102 337 146 515 190 765 57 326 74 441 102 710 25 230
25 975 0 1190 -9 83 -22 193 -28 245 -11 101 -34 263 -49 345 -6 28 -17 91
-26 140 -8 50 -21 117 -29 150 -7 33 -18 87 -25 120 -12 54 -49 205 -85 340
-39 149 -113 382 -199 623 -31 87 -88 227 -122 300 -13 29 -24 55 -24 57 0 3
-40 87 -89 188 -420 859 -1057 1588 -1787 2044 -323 203 -723 374 -1079 464
-83 21 -119 34 -123 47 -3 9 20 12 90 12 51 0 197 10 323 21 127 12 286 25
355 29 170 11 501 3 635 -15z m-7181 5 c108 -9 447 -33 636 -45 126 -8 180
-15 180 -26 0 -5 -12 -11 -27 -14 -133 -26 -178 -38 -368 -101 -167 -54 -430
-160 -548 -221 -338 -173 -673 -422 -992 -739 -187 -185 -276 -287 -461 -524
-69 -89 -254 -363 -294 -436 -18 -32 -40 -70 -50 -84 -42 -63 -233 -435 -302
-590 -174 -392 -362 -1014 -443 -1465 -8 -49 -20 -108 -25 -130 -5 -22 -16
-87 -24 -145 -9 -58 -21 -134 -26 -170 -28 -186 -41 -342 -61 -765 -16 -342 1
-790 45 -1155 23 -193 50 -384 66 -475 64 -348 138 -658 211 -880 5 -16 29
-91 53 -165 105 -320 171 -484 317 -785 240 -498 658 -1104 997 -1447 69 -70
123 -130 119 -134 -11 -11 -157 18 -332 66 -93 26 -273 103 -399 172 -38 21
-73 38 -77 38 -5 0 -38 18 -74 40 -36 22 -68 40 -72 40 -10 0 -323 210 -393
264 -181 140 -334 277 -530 475 -346 348 -587 677 -874 1193 -202 365 -375
798 -489 1233 -106 401 -150 636 -197 1050 -32 285 -37 925 -10 1175 5 47 14
128 19 180 10 87 24 186 50 345 10 60 47 246 75 380 72 335 207 746 364 1110
124 285 374 720 560 975 200 273 521 622 770 839 585 507 1280 839 1916 916
126 15 543 18 690 5z m1711 -498 c44 -11 100 -27 125 -37 25 -9 60 -21 78 -26
17 -6 32 -16 32 -24 0 -8 -42 -69 -92 -136 -160 -210 -282 -381 -329 -459
-150 -247 -189 -321 -309 -575 -61 -128 -153 -345 -182 -424 -10 -31 -23 -65
-28 -76 -28 -62 -177 -529 -221 -690 -37 -139 -40 -148 -65 -255 -45 -195 -54
-235 -84 -385 -58 -287 -95 -502 -125 -730 -31 -238 -34 -261 -40 -335 -3 -41
-10 -109 -15 -150 -11 -88 -35 -405 -50 -640 -13 -213 -13 -1085 0 -1255 5
-71 15 -200 20 -285 23 -333 46 -546 85 -795 8 -49 20 -121 26 -160 14 -90 31
-186 64 -360 64 -341 111 -533 224 -925 72 -249 209 -621 310 -843 16 -34 38
-84 51 -112 104 -235 315 -597 455 -782 36 -48 64 -94 63 -102 -3 -13 -25 -18
-108 -24 -196 -14 -460 7 -681 52 -50 11 -306 94 -354 116 -16 7 -66 28 -110
46 -218 89 -449 220 -689 391 -580 415 -1095 1036 -1436 1734 -50 100 -90 185
-90 188 0 2 -14 35 -31 73 -47 104 -54 121 -92 218 -54 141 -164 476 -209 640
-6 22 -16 60 -23 85 -7 25 -17 68 -23 95 -6 28 -18 79 -26 115 -26 109 -55
259 -76 385 -78 466 -95 680 -95 1195 0 545 19 752 126 1395 5 33 14 76 19 95
5 19 16 71 26 115 18 88 64 269 89 355 9 30 20 69 25 85 17 62 110 335 155
455 93 249 198 479 299 658 58 103 77 136 116 207 154 277 430 628 707 895
364 352 733 599 1148 770 83 34 159 66 170 71 50 21 360 104 475 127 55 11
217 38 275 46 76 11 343 -3 420 -22z m3825 -1 c211 -36 297 -57 447 -107 245
-81 611 -266 863 -434 334 -224 730 -600 989 -940 80 -105 241 -334 241 -343
0 -2 37 -67 81 -143 103 -175 281 -537 357 -724 147 -363 273 -798 361 -1245
82 -418 115 -720 127 -1172 8 -288 -15 -672 -57 -958 -54 -362 -79 -498 -144
-775 -58 -248 -224 -727 -347 -1000 -167 -369 -279 -576 -466 -859 -221 -335
-462 -621 -752 -893 -160 -150 -163 -153 -300 -257 -244 -185 -430 -302 -651
-409 -396 -192 -618 -262 -974 -307 -138 -17 -401 -20 -410 -5 -8 14 7 38 115
174 233 296 540 809 663 1106 19 47 46 110 60 140 81 181 236 632 297 865 62
236 82 314 90 355 5 25 17 77 25 115 24 107 71 349 89 460 10 55 21 120 26
145 5 25 16 101 25 170 9 69 20 154 25 190 9 66 31 285 50 505 23 261 32 776
21 1118 -17 511 -65 1028 -133 1417 -11 63 -23 140 -28 170 -31 209 -140 678
-225 975 -14 50 -30 104 -35 120 -23 81 -62 201 -98 300 -22 61 -58 160 -79
220 -22 61 -49 133 -61 160 -11 28 -34 84 -50 125 -184 454 -497 981 -790
1330 -63 75 -214 241 -254 281 -16 14 -28 31 -28 37 0 13 300 110 360 116 108
10 457 -4 570 -23z m-2114 -26 c232 -35 417 -121 700 -326 255 -185 482 -438
716 -799 113 -174 301 -521 363 -670 26 -63 51 -121 80 -185 91 -204 266 -738
330 -1010 9 -38 27 -115 40 -170 13 -55 31 -138 40 -185 9 -47 20 -101 25
-120 4 -19 11 -55 15 -80 3 -25 10 -63 15 -85 5 -22 16 -89 25 -150 9 -60 20
-135 26 -165 21 -124 33 -232 65 -590 56 -626 57 -1360 4 -1985 -15 -187 -51
-489 -70 -590 -5 -27 -12 -72 -15 -100 -4 -27 -15 -95 -26 -150 -10 -55 -26
-138 -35 -185 -88 -474 -263 -1062 -416 -1400 -148 -325 -314 -625 -474 -855
-44 -63 -141 -193 -154 -205 -3 -3 -32 -36 -64 -75 -132 -157 -353 -355 -528
-473 -142 -96 -355 -194 -523 -242 -59 -17 -231 -39 -301 -40 -150 0 -364 50
-532 126 -29 13 -55 24 -57 24 -9 0 -188 112 -245 153 -90 65 -339 323 -431
447 -47 63 -116 165 -153 225 -38 61 -79 127 -92 147 -22 34 -149 291 -204
413 -40 88 -150 386 -195 525 -102 315 -155 514 -234 860 -27 119 -65 325 -86
470 -9 58 -20 132 -25 165 -6 33 -17 116 -25 185 -8 69 -20 161 -25 205 -21
170 -35 322 -61 695 -16 217 -16 1136 0 1345 6 88 16 221 21 295 9 126 25 289
49 505 14 125 38 287 81 555 5 30 16 93 25 140 9 47 20 110 25 140 7 46 26
135 80 380 9 43 77 303 90 345 136 440 190 602 260 780 160 403 367 773 591
1055 130 164 336 364 457 444 98 65 239 137 306 158 218 66 360 80 542 53z"/>
</g>
</svg>
